<mxfile host="app.diagrams.net" modified="2024-02-01T00:37:35.372Z" agent="Mozilla/5.0 (Windows NT 10.0; Win64; x64) AppleWebKit/537.36 (KHTML, like Gecko) Chrome/120.0.0.0 Safari/537.36" etag="wUgDRaoHnWn90qhGmqXL" version="23.1.0" type="google">
  <diagram name="Página-1" id="VhfkyqsWKESoW9bIJJ4c">
    <mxGraphModel grid="1" page="1" gridSize="10" guides="1" tooltips="1" connect="1" arrows="1" fold="1" pageScale="1" pageWidth="827" pageHeight="1169" math="0" shadow="0">
      <root>
        <mxCell id="0" />
        <mxCell id="1" parent="0" />
        <mxCell id="jp-UoOTQR8ZDa5AJa1vx-38" style="edgeStyle=none;rounded=0;orthogonalLoop=1;jettySize=auto;html=1;exitX=0;exitY=0.5;exitDx=0;exitDy=0;entryX=1;entryY=0.5;entryDx=0;entryDy=0;" edge="1" parent="1" source="jp-UoOTQR8ZDa5AJa1vx-40" target="jp-UoOTQR8ZDa5AJa1vx-41">
          <mxGeometry relative="1" as="geometry">
            <mxPoint x="260" y="790" as="targetPoint" />
          </mxGeometry>
        </mxCell>
        <mxCell id="jp-UoOTQR8ZDa5AJa1vx-39" style="edgeStyle=none;rounded=0;orthogonalLoop=1;jettySize=auto;html=1;exitX=1;exitY=0.5;exitDx=0;exitDy=0;" edge="1" parent="1" source="jp-UoOTQR8ZDa5AJa1vx-40">
          <mxGeometry relative="1" as="geometry">
            <mxPoint x="520" y="790" as="targetPoint" />
          </mxGeometry>
        </mxCell>
        <mxCell id="jp-UoOTQR8ZDa5AJa1vx-40" value="&lt;span lang=&quot;EN-US&quot;&gt;&lt;font style=&quot;font-size: 12px;&quot;&gt;Urban Routes&lt;/font&gt;&lt;/span&gt;" style="rounded=1;whiteSpace=wrap;html=1;arcSize=22;" vertex="1" parent="1">
          <mxGeometry x="330" y="770" width="120" height="40" as="geometry" />
        </mxCell>
        <mxCell id="jp-UoOTQR8ZDa5AJa1vx-45" style="edgeStyle=orthogonalEdgeStyle;rounded=0;orthogonalLoop=1;jettySize=auto;html=1;entryX=1;entryY=0.5;entryDx=0;entryDy=0;" edge="1" parent="1" source="jp-UoOTQR8ZDa5AJa1vx-41" target="jp-UoOTQR8ZDa5AJa1vx-43">
          <mxGeometry relative="1" as="geometry" />
        </mxCell>
        <mxCell id="jp-UoOTQR8ZDa5AJa1vx-47" value="" style="edgeStyle=orthogonalEdgeStyle;rounded=0;orthogonalLoop=1;jettySize=auto;html=1;" edge="1" parent="1" source="jp-UoOTQR8ZDa5AJa1vx-41" target="jp-UoOTQR8ZDa5AJa1vx-46">
          <mxGeometry relative="1" as="geometry" />
        </mxCell>
        <mxCell id="jp-UoOTQR8ZDa5AJa1vx-53" style="edgeStyle=orthogonalEdgeStyle;rounded=0;orthogonalLoop=1;jettySize=auto;html=1;entryX=1;entryY=0.5;entryDx=0;entryDy=0;" edge="1" parent="1" source="jp-UoOTQR8ZDa5AJa1vx-41" target="jp-UoOTQR8ZDa5AJa1vx-52">
          <mxGeometry relative="1" as="geometry" />
        </mxCell>
        <mxCell id="jp-UoOTQR8ZDa5AJa1vx-86" style="edgeStyle=orthogonalEdgeStyle;rounded=0;orthogonalLoop=1;jettySize=auto;html=1;entryX=1;entryY=0.5;entryDx=0;entryDy=0;" edge="1" parent="1" source="jp-UoOTQR8ZDa5AJa1vx-41" target="jp-UoOTQR8ZDa5AJa1vx-85">
          <mxGeometry relative="1" as="geometry" />
        </mxCell>
        <mxCell id="jp-UoOTQR8ZDa5AJa1vx-105" style="edgeStyle=orthogonalEdgeStyle;rounded=0;orthogonalLoop=1;jettySize=auto;html=1;entryX=1;entryY=0.5;entryDx=0;entryDy=0;" edge="1" parent="1" source="jp-UoOTQR8ZDa5AJa1vx-41" target="jp-UoOTQR8ZDa5AJa1vx-104">
          <mxGeometry relative="1" as="geometry" />
        </mxCell>
        <mxCell id="jp-UoOTQR8ZDa5AJa1vx-41" value="&lt;span style=&quot;&quot; lang=&quot;EN-US&quot;&gt;&lt;font style=&quot;font-size: 12px;&quot;&gt;Interface&lt;/font&gt;&lt;/span&gt;" style="rounded=1;whiteSpace=wrap;html=1;arcSize=22;" vertex="1" parent="1">
          <mxGeometry x="130" y="770" width="120" height="40" as="geometry" />
        </mxCell>
        <mxCell id="jp-UoOTQR8ZDa5AJa1vx-115" value="" style="edgeStyle=orthogonalEdgeStyle;rounded=0;orthogonalLoop=1;jettySize=auto;html=1;" edge="1" parent="1" source="jp-UoOTQR8ZDa5AJa1vx-42" target="jp-UoOTQR8ZDa5AJa1vx-114">
          <mxGeometry relative="1" as="geometry" />
        </mxCell>
        <mxCell id="jp-UoOTQR8ZDa5AJa1vx-140" style="edgeStyle=orthogonalEdgeStyle;rounded=0;orthogonalLoop=1;jettySize=auto;html=1;entryX=0;entryY=0.5;entryDx=0;entryDy=0;" edge="1" parent="1" source="jp-UoOTQR8ZDa5AJa1vx-42" target="jp-UoOTQR8ZDa5AJa1vx-139">
          <mxGeometry relative="1" as="geometry" />
        </mxCell>
        <mxCell id="jp-UoOTQR8ZDa5AJa1vx-168" style="edgeStyle=orthogonalEdgeStyle;rounded=0;orthogonalLoop=1;jettySize=auto;html=1;entryX=0;entryY=0.5;entryDx=0;entryDy=0;" edge="1" parent="1" source="jp-UoOTQR8ZDa5AJa1vx-42" target="jp-UoOTQR8ZDa5AJa1vx-167">
          <mxGeometry relative="1" as="geometry" />
        </mxCell>
        <mxCell id="jp-UoOTQR8ZDa5AJa1vx-194" style="edgeStyle=orthogonalEdgeStyle;rounded=0;orthogonalLoop=1;jettySize=auto;html=1;entryX=0;entryY=0.5;entryDx=0;entryDy=0;" edge="1" parent="1" source="jp-UoOTQR8ZDa5AJa1vx-42" target="jp-UoOTQR8ZDa5AJa1vx-193">
          <mxGeometry relative="1" as="geometry" />
        </mxCell>
        <mxCell id="jp-UoOTQR8ZDa5AJa1vx-42" value="Lógica" style="rounded=1;whiteSpace=wrap;html=1;arcSize=22;" vertex="1" parent="1">
          <mxGeometry x="520" y="770" width="120" height="40" as="geometry" />
        </mxCell>
        <mxCell id="jp-UoOTQR8ZDa5AJa1vx-43" value="logo &#39;&#39;urban routes&#39;&#39;" style="whiteSpace=wrap;html=1;rounded=1;arcSize=22;" vertex="1" parent="1">
          <mxGeometry x="-30" y="670" width="120" height="60" as="geometry" />
        </mxCell>
        <mxCell id="jp-UoOTQR8ZDa5AJa1vx-50" style="edgeStyle=orthogonalEdgeStyle;rounded=0;orthogonalLoop=1;jettySize=auto;html=1;entryX=1;entryY=0.75;entryDx=0;entryDy=0;" edge="1" parent="1" source="jp-UoOTQR8ZDa5AJa1vx-46" target="jp-UoOTQR8ZDa5AJa1vx-48">
          <mxGeometry relative="1" as="geometry" />
        </mxCell>
        <mxCell id="jp-UoOTQR8ZDa5AJa1vx-51" style="edgeStyle=orthogonalEdgeStyle;rounded=0;orthogonalLoop=1;jettySize=auto;html=1;entryX=1;entryY=0.5;entryDx=0;entryDy=0;" edge="1" parent="1" source="jp-UoOTQR8ZDa5AJa1vx-46" target="jp-UoOTQR8ZDa5AJa1vx-49">
          <mxGeometry relative="1" as="geometry" />
        </mxCell>
        <mxCell id="jp-UoOTQR8ZDa5AJa1vx-46" value="Painel&lt;br/&gt;de seleção de endereço" style="rounded=1;whiteSpace=wrap;html=1;arcSize=22;" vertex="1" parent="1">
          <mxGeometry x="-40" y="770" width="120" height="40" as="geometry" />
        </mxCell>
        <mxCell id="jp-UoOTQR8ZDa5AJa1vx-48" value="Campos &#39;&#39;De&#39;&#39;" style="rounded=1;whiteSpace=wrap;html=1;" vertex="1" parent="1">
          <mxGeometry x="-190" y="750" width="70" height="30" as="geometry" />
        </mxCell>
        <mxCell id="jp-UoOTQR8ZDa5AJa1vx-49" value="Campos &#39;&#39;para&#39;&#39;" style="rounded=1;whiteSpace=wrap;html=1;" vertex="1" parent="1">
          <mxGeometry x="-190" y="800" width="70" height="30" as="geometry" />
        </mxCell>
        <mxCell id="jp-UoOTQR8ZDa5AJa1vx-55" value="" style="edgeStyle=orthogonalEdgeStyle;rounded=0;orthogonalLoop=1;jettySize=auto;html=1;" edge="1" parent="1" source="jp-UoOTQR8ZDa5AJa1vx-52" target="jp-UoOTQR8ZDa5AJa1vx-54">
          <mxGeometry relative="1" as="geometry" />
        </mxCell>
        <mxCell id="jp-UoOTQR8ZDa5AJa1vx-56" value="" style="edgeStyle=orthogonalEdgeStyle;rounded=0;orthogonalLoop=1;jettySize=auto;html=1;" edge="1" parent="1" source="jp-UoOTQR8ZDa5AJa1vx-52" target="jp-UoOTQR8ZDa5AJa1vx-54">
          <mxGeometry relative="1" as="geometry" />
        </mxCell>
        <mxCell id="jp-UoOTQR8ZDa5AJa1vx-57" value="" style="edgeStyle=orthogonalEdgeStyle;rounded=0;orthogonalLoop=1;jettySize=auto;html=1;" edge="1" parent="1" source="jp-UoOTQR8ZDa5AJa1vx-52" target="jp-UoOTQR8ZDa5AJa1vx-54">
          <mxGeometry relative="1" as="geometry" />
        </mxCell>
        <mxCell id="jp-UoOTQR8ZDa5AJa1vx-59" style="edgeStyle=orthogonalEdgeStyle;rounded=0;orthogonalLoop=1;jettySize=auto;html=1;" edge="1" parent="1" source="jp-UoOTQR8ZDa5AJa1vx-52" target="jp-UoOTQR8ZDa5AJa1vx-58">
          <mxGeometry relative="1" as="geometry" />
        </mxCell>
        <mxCell id="jp-UoOTQR8ZDa5AJa1vx-52" value="Painel&lt;br/&gt;de tipo de transporte e modo de seleção" style="rounded=1;whiteSpace=wrap;html=1;arcSize=22;" vertex="1" parent="1">
          <mxGeometry x="-30" y="900" width="120" height="60" as="geometry" />
        </mxCell>
        <mxCell id="jp-UoOTQR8ZDa5AJa1vx-61" value="" style="edgeStyle=orthogonalEdgeStyle;rounded=0;orthogonalLoop=1;jettySize=auto;html=1;" edge="1" parent="1" source="jp-UoOTQR8ZDa5AJa1vx-54" target="jp-UoOTQR8ZDa5AJa1vx-60">
          <mxGeometry relative="1" as="geometry" />
        </mxCell>
        <mxCell id="jp-UoOTQR8ZDa5AJa1vx-64" value="" style="edgeStyle=orthogonalEdgeStyle;rounded=0;orthogonalLoop=1;jettySize=auto;html=1;" edge="1" parent="1" source="jp-UoOTQR8ZDa5AJa1vx-54" target="jp-UoOTQR8ZDa5AJa1vx-62">
          <mxGeometry relative="1" as="geometry" />
        </mxCell>
        <mxCell id="jp-UoOTQR8ZDa5AJa1vx-68" style="edgeStyle=orthogonalEdgeStyle;rounded=0;orthogonalLoop=1;jettySize=auto;html=1;entryX=1;entryY=0.75;entryDx=0;entryDy=0;" edge="1" parent="1" source="jp-UoOTQR8ZDa5AJa1vx-54" target="jp-UoOTQR8ZDa5AJa1vx-66">
          <mxGeometry relative="1" as="geometry" />
        </mxCell>
        <mxCell id="jp-UoOTQR8ZDa5AJa1vx-54" value="modo de seleção" style="whiteSpace=wrap;html=1;rounded=1;arcSize=22;" vertex="1" parent="1">
          <mxGeometry x="-190" y="870" width="100" height="30" as="geometry" />
        </mxCell>
        <mxCell id="jp-UoOTQR8ZDa5AJa1vx-70" value="" style="edgeStyle=orthogonalEdgeStyle;rounded=0;orthogonalLoop=1;jettySize=auto;html=1;" edge="1" parent="1" source="jp-UoOTQR8ZDa5AJa1vx-58" target="jp-UoOTQR8ZDa5AJa1vx-69">
          <mxGeometry relative="1" as="geometry" />
        </mxCell>
        <mxCell id="jp-UoOTQR8ZDa5AJa1vx-73" style="edgeStyle=orthogonalEdgeStyle;rounded=0;orthogonalLoop=1;jettySize=auto;html=1;entryX=1;entryY=0.5;entryDx=0;entryDy=0;" edge="1" parent="1" source="jp-UoOTQR8ZDa5AJa1vx-58" target="jp-UoOTQR8ZDa5AJa1vx-72">
          <mxGeometry relative="1" as="geometry" />
        </mxCell>
        <mxCell id="jp-UoOTQR8ZDa5AJa1vx-75" style="edgeStyle=orthogonalEdgeStyle;rounded=0;orthogonalLoop=1;jettySize=auto;html=1;entryX=1;entryY=0.5;entryDx=0;entryDy=0;" edge="1" parent="1" source="jp-UoOTQR8ZDa5AJa1vx-58" target="jp-UoOTQR8ZDa5AJa1vx-74">
          <mxGeometry relative="1" as="geometry" />
        </mxCell>
        <mxCell id="jp-UoOTQR8ZDa5AJa1vx-77" style="edgeStyle=orthogonalEdgeStyle;rounded=0;orthogonalLoop=1;jettySize=auto;html=1;entryX=1;entryY=0.75;entryDx=0;entryDy=0;" edge="1" parent="1" source="jp-UoOTQR8ZDa5AJa1vx-58" target="jp-UoOTQR8ZDa5AJa1vx-76">
          <mxGeometry relative="1" as="geometry" />
        </mxCell>
        <mxCell id="jp-UoOTQR8ZDa5AJa1vx-80" style="edgeStyle=orthogonalEdgeStyle;rounded=0;orthogonalLoop=1;jettySize=auto;html=1;entryX=1;entryY=0.5;entryDx=0;entryDy=0;" edge="1" parent="1" source="jp-UoOTQR8ZDa5AJa1vx-58" target="jp-UoOTQR8ZDa5AJa1vx-78">
          <mxGeometry relative="1" as="geometry" />
        </mxCell>
        <mxCell id="jp-UoOTQR8ZDa5AJa1vx-81" style="edgeStyle=orthogonalEdgeStyle;rounded=0;orthogonalLoop=1;jettySize=auto;html=1;entryX=1;entryY=0.5;entryDx=0;entryDy=0;" edge="1" parent="1" source="jp-UoOTQR8ZDa5AJa1vx-58" target="jp-UoOTQR8ZDa5AJa1vx-79">
          <mxGeometry relative="1" as="geometry" />
        </mxCell>
        <mxCell id="jp-UoOTQR8ZDa5AJa1vx-58" value="tipo de transporte" style="whiteSpace=wrap;html=1;rounded=1;arcSize=22;" vertex="1" parent="1">
          <mxGeometry x="-190" y="960" width="100" height="30" as="geometry" />
        </mxCell>
        <mxCell id="jp-UoOTQR8ZDa5AJa1vx-60" value="optimal" style="whiteSpace=wrap;html=1;rounded=1;arcSize=22;" vertex="1" parent="1">
          <mxGeometry x="-340" y="865" width="80" height="15" as="geometry" />
        </mxCell>
        <mxCell id="jp-UoOTQR8ZDa5AJa1vx-62" value="Flash" style="whiteSpace=wrap;html=1;rounded=1;arcSize=22;" vertex="1" parent="1">
          <mxGeometry x="-340" y="887.5" width="80" height="15" as="geometry" />
        </mxCell>
        <mxCell id="jp-UoOTQR8ZDa5AJa1vx-66" value="personal" style="whiteSpace=wrap;html=1;rounded=1;arcSize=22;" vertex="1" parent="1">
          <mxGeometry x="-340" y="910" width="80" height="15" as="geometry" />
        </mxCell>
        <mxCell id="jp-UoOTQR8ZDa5AJa1vx-69" value="carro particular" style="whiteSpace=wrap;html=1;rounded=1;arcSize=22;" vertex="1" parent="1">
          <mxGeometry x="-320" y="963.75" width="90" height="22.5" as="geometry" />
        </mxCell>
        <mxCell id="jp-UoOTQR8ZDa5AJa1vx-72" value="a pé" style="whiteSpace=wrap;html=1;rounded=1;arcSize=22;" vertex="1" parent="1">
          <mxGeometry x="-320" y="990" width="90" height="22.5" as="geometry" />
        </mxCell>
        <mxCell id="jp-UoOTQR8ZDa5AJa1vx-74" value="taxi" style="whiteSpace=wrap;html=1;rounded=1;arcSize=22;" vertex="1" parent="1">
          <mxGeometry x="-320" y="1017.5" width="90" height="22.5" as="geometry" />
        </mxCell>
        <mxCell id="jp-UoOTQR8ZDa5AJa1vx-76" value="bicicleta" style="whiteSpace=wrap;html=1;rounded=1;arcSize=22;" vertex="1" parent="1">
          <mxGeometry x="-320" y="1045" width="90" height="22.5" as="geometry" />
        </mxCell>
        <mxCell id="jp-UoOTQR8ZDa5AJa1vx-78" value="scooter" style="whiteSpace=wrap;html=1;rounded=1;arcSize=22;" vertex="1" parent="1">
          <mxGeometry x="-320" y="1073" width="90" height="22.5" as="geometry" />
        </mxCell>
        <mxCell id="jp-UoOTQR8ZDa5AJa1vx-79" value="carro compartilhado" style="whiteSpace=wrap;html=1;rounded=1;arcSize=22;" vertex="1" parent="1">
          <mxGeometry x="-360" y="1100" width="130" height="22.5" as="geometry" />
        </mxCell>
        <mxCell id="jp-UoOTQR8ZDa5AJa1vx-88" value="" style="edgeStyle=orthogonalEdgeStyle;rounded=0;orthogonalLoop=1;jettySize=auto;html=1;" edge="1" parent="1" source="jp-UoOTQR8ZDa5AJa1vx-85" target="jp-UoOTQR8ZDa5AJa1vx-87">
          <mxGeometry relative="1" as="geometry" />
        </mxCell>
        <mxCell id="jp-UoOTQR8ZDa5AJa1vx-92" value="" style="edgeStyle=orthogonalEdgeStyle;rounded=0;orthogonalLoop=1;jettySize=auto;html=1;" edge="1" parent="1" source="jp-UoOTQR8ZDa5AJa1vx-85" target="jp-UoOTQR8ZDa5AJa1vx-91">
          <mxGeometry relative="1" as="geometry" />
        </mxCell>
        <mxCell id="jp-UoOTQR8ZDa5AJa1vx-96" style="edgeStyle=orthogonalEdgeStyle;rounded=0;orthogonalLoop=1;jettySize=auto;html=1;entryX=1;entryY=0.75;entryDx=0;entryDy=0;" edge="1" parent="1" source="jp-UoOTQR8ZDa5AJa1vx-85" target="jp-UoOTQR8ZDa5AJa1vx-95">
          <mxGeometry relative="1" as="geometry" />
        </mxCell>
        <mxCell id="jp-UoOTQR8ZDa5AJa1vx-85" value="painel de informações" style="rounded=1;whiteSpace=wrap;html=1;" vertex="1" parent="1">
          <mxGeometry y="1140" width="90" height="60" as="geometry" />
        </mxCell>
        <mxCell id="jp-UoOTQR8ZDa5AJa1vx-87" value="custo da viagem" style="whiteSpace=wrap;html=1;rounded=1;" vertex="1" parent="1">
          <mxGeometry x="-150" y="1155" width="95" height="30" as="geometry" />
        </mxCell>
        <mxCell id="jp-UoOTQR8ZDa5AJa1vx-91" value="botão chamar taxi" style="whiteSpace=wrap;html=1;rounded=1;" vertex="1" parent="1">
          <mxGeometry x="-150" y="1200" width="107.5" height="30" as="geometry" />
        </mxCell>
        <mxCell id="jp-UoOTQR8ZDa5AJa1vx-95" value="texto do tipo de transporte escolhido" style="whiteSpace=wrap;html=1;rounded=1;" vertex="1" parent="1">
          <mxGeometry x="-155" y="1250" width="115" height="30" as="geometry" />
        </mxCell>
        <mxCell id="jp-UoOTQR8ZDa5AJa1vx-101" value="" style="edgeStyle=orthogonalEdgeStyle;rounded=0;orthogonalLoop=1;jettySize=auto;html=1;" edge="1" parent="1" source="jp-UoOTQR8ZDa5AJa1vx-98" target="jp-UoOTQR8ZDa5AJa1vx-100">
          <mxGeometry relative="1" as="geometry" />
        </mxCell>
        <mxCell id="jp-UoOTQR8ZDa5AJa1vx-103" style="edgeStyle=orthogonalEdgeStyle;rounded=0;orthogonalLoop=1;jettySize=auto;html=1;entryX=1;entryY=0.5;entryDx=0;entryDy=0;" edge="1" parent="1" source="jp-UoOTQR8ZDa5AJa1vx-98" target="jp-UoOTQR8ZDa5AJa1vx-102">
          <mxGeometry relative="1" as="geometry" />
        </mxCell>
        <mxCell id="jp-UoOTQR8ZDa5AJa1vx-98" value="zoom" style="rounded=1;whiteSpace=wrap;html=1;" vertex="1" parent="1">
          <mxGeometry x="-80" y="1345" width="60" height="40" as="geometry" />
        </mxCell>
        <mxCell id="jp-UoOTQR8ZDa5AJa1vx-100" value="botão &#39;&#39;+&#39;&#39;" style="whiteSpace=wrap;html=1;rounded=1;" vertex="1" parent="1">
          <mxGeometry x="-210" y="1320" width="70" height="40" as="geometry" />
        </mxCell>
        <mxCell id="jp-UoOTQR8ZDa5AJa1vx-102" value="botão &#39;&#39;-&#39;&#39;" style="whiteSpace=wrap;html=1;rounded=1;" vertex="1" parent="1">
          <mxGeometry x="-210" y="1380" width="70" height="40" as="geometry" />
        </mxCell>
        <mxCell id="jp-UoOTQR8ZDa5AJa1vx-106" value="" style="edgeStyle=orthogonalEdgeStyle;rounded=0;orthogonalLoop=1;jettySize=auto;html=1;" edge="1" parent="1" source="jp-UoOTQR8ZDa5AJa1vx-104" target="jp-UoOTQR8ZDa5AJa1vx-98">
          <mxGeometry relative="1" as="geometry" />
        </mxCell>
        <mxCell id="jp-UoOTQR8ZDa5AJa1vx-109" style="edgeStyle=orthogonalEdgeStyle;rounded=0;orthogonalLoop=1;jettySize=auto;html=1;entryX=1;entryY=0.5;entryDx=0;entryDy=0;" edge="1" parent="1" source="jp-UoOTQR8ZDa5AJa1vx-104" target="jp-UoOTQR8ZDa5AJa1vx-108">
          <mxGeometry relative="1" as="geometry" />
        </mxCell>
        <mxCell id="jp-UoOTQR8ZDa5AJa1vx-104" value="mapa" style="rounded=1;whiteSpace=wrap;html=1;" vertex="1" parent="1">
          <mxGeometry x="30" y="1340" width="60" height="50" as="geometry" />
        </mxCell>
        <mxCell id="jp-UoOTQR8ZDa5AJa1vx-112" style="edgeStyle=orthogonalEdgeStyle;rounded=0;orthogonalLoop=1;jettySize=auto;html=1;entryX=1;entryY=0.5;entryDx=0;entryDy=0;" edge="1" parent="1" source="jp-UoOTQR8ZDa5AJa1vx-108" target="jp-UoOTQR8ZDa5AJa1vx-110">
          <mxGeometry relative="1" as="geometry" />
        </mxCell>
        <mxCell id="jp-UoOTQR8ZDa5AJa1vx-113" style="edgeStyle=orthogonalEdgeStyle;rounded=0;orthogonalLoop=1;jettySize=auto;html=1;entryX=1;entryY=0.5;entryDx=0;entryDy=0;" edge="1" parent="1" source="jp-UoOTQR8ZDa5AJa1vx-108" target="jp-UoOTQR8ZDa5AJa1vx-111">
          <mxGeometry relative="1" as="geometry" />
        </mxCell>
        <mxCell id="jp-UoOTQR8ZDa5AJa1vx-108" value="rota" style="rounded=1;whiteSpace=wrap;html=1;" vertex="1" parent="1">
          <mxGeometry x="-80" y="1480" width="60" height="40" as="geometry" />
        </mxCell>
        <mxCell id="jp-UoOTQR8ZDa5AJa1vx-110" value="ponto &#39;&#39;a&#39;&#39;" style="whiteSpace=wrap;html=1;rounded=1;" vertex="1" parent="1">
          <mxGeometry x="-210" y="1460" width="70" height="40" as="geometry" />
        </mxCell>
        <mxCell id="jp-UoOTQR8ZDa5AJa1vx-111" value="ponto &#39;&#39;b&#39;&#39;" style="whiteSpace=wrap;html=1;rounded=1;" vertex="1" parent="1">
          <mxGeometry x="-210" y="1520" width="70" height="40" as="geometry" />
        </mxCell>
        <mxCell id="jp-UoOTQR8ZDa5AJa1vx-117" value="" style="edgeStyle=orthogonalEdgeStyle;rounded=0;orthogonalLoop=1;jettySize=auto;html=1;" edge="1" parent="1" source="jp-UoOTQR8ZDa5AJa1vx-114" target="jp-UoOTQR8ZDa5AJa1vx-116">
          <mxGeometry relative="1" as="geometry" />
        </mxCell>
        <mxCell id="jp-UoOTQR8ZDa5AJa1vx-114" value="Verificando&lt;br/&gt;a correção da entrada de dados nos campos" style="rounded=1;whiteSpace=wrap;html=1;arcSize=22;" vertex="1" parent="1">
          <mxGeometry x="720" y="760" width="120" height="60" as="geometry" />
        </mxCell>
        <mxCell id="jp-UoOTQR8ZDa5AJa1vx-119" value="" style="edgeStyle=orthogonalEdgeStyle;rounded=0;orthogonalLoop=1;jettySize=auto;html=1;" edge="1" parent="1" source="jp-UoOTQR8ZDa5AJa1vx-116" target="jp-UoOTQR8ZDa5AJa1vx-118">
          <mxGeometry relative="1" as="geometry" />
        </mxCell>
        <mxCell id="jp-UoOTQR8ZDa5AJa1vx-120" style="edgeStyle=orthogonalEdgeStyle;rounded=0;orthogonalLoop=1;jettySize=auto;html=1;entryX=0;entryY=0.25;entryDx=0;entryDy=0;" edge="1" parent="1" source="jp-UoOTQR8ZDa5AJa1vx-116" target="jp-UoOTQR8ZDa5AJa1vx-121">
          <mxGeometry relative="1" as="geometry">
            <mxPoint x="1100" y="850" as="targetPoint" />
          </mxGeometry>
        </mxCell>
        <mxCell id="jp-UoOTQR8ZDa5AJa1vx-116" value="campo endereço" style="whiteSpace=wrap;html=1;rounded=1;arcSize=22;" vertex="1" parent="1">
          <mxGeometry x="920" y="760" width="120" height="60" as="geometry" />
        </mxCell>
        <mxCell id="jp-UoOTQR8ZDa5AJa1vx-123" value="" style="edgeStyle=orthogonalEdgeStyle;rounded=0;orthogonalLoop=1;jettySize=auto;html=1;" edge="1" parent="1" source="jp-UoOTQR8ZDa5AJa1vx-118" target="jp-UoOTQR8ZDa5AJa1vx-122">
          <mxGeometry relative="1" as="geometry" />
        </mxCell>
        <mxCell id="jp-UoOTQR8ZDa5AJa1vx-125" style="edgeStyle=orthogonalEdgeStyle;rounded=0;orthogonalLoop=1;jettySize=auto;html=1;entryX=0;entryY=0.5;entryDx=0;entryDy=0;" edge="1" parent="1" source="jp-UoOTQR8ZDa5AJa1vx-118" target="jp-UoOTQR8ZDa5AJa1vx-124">
          <mxGeometry relative="1" as="geometry" />
        </mxCell>
        <mxCell id="jp-UoOTQR8ZDa5AJa1vx-118" value="campo de" style="whiteSpace=wrap;html=1;rounded=1;arcSize=22;" vertex="1" parent="1">
          <mxGeometry x="1159" y="730" width="100" height="30" as="geometry" />
        </mxCell>
        <mxCell id="jp-UoOTQR8ZDa5AJa1vx-128" style="edgeStyle=orthogonalEdgeStyle;rounded=0;orthogonalLoop=1;jettySize=auto;html=1;entryX=0;entryY=0.5;entryDx=0;entryDy=0;" edge="1" parent="1" source="jp-UoOTQR8ZDa5AJa1vx-121" target="jp-UoOTQR8ZDa5AJa1vx-126">
          <mxGeometry relative="1" as="geometry" />
        </mxCell>
        <mxCell id="jp-UoOTQR8ZDa5AJa1vx-129" style="edgeStyle=orthogonalEdgeStyle;rounded=0;orthogonalLoop=1;jettySize=auto;html=1;entryX=0;entryY=0.5;entryDx=0;entryDy=0;" edge="1" parent="1" source="jp-UoOTQR8ZDa5AJa1vx-121" target="jp-UoOTQR8ZDa5AJa1vx-127">
          <mxGeometry relative="1" as="geometry" />
        </mxCell>
        <mxCell id="jp-UoOTQR8ZDa5AJa1vx-121" value="campo para" style="whiteSpace=wrap;html=1;rounded=1;arcSize=22;" vertex="1" parent="1">
          <mxGeometry x="1160" y="857.5" width="100" height="30" as="geometry" />
        </mxCell>
        <mxCell id="jp-UoOTQR8ZDa5AJa1vx-131" value="" style="edgeStyle=orthogonalEdgeStyle;rounded=0;orthogonalLoop=1;jettySize=auto;html=1;" edge="1" parent="1" source="jp-UoOTQR8ZDa5AJa1vx-122" target="jp-UoOTQR8ZDa5AJa1vx-130">
          <mxGeometry relative="1" as="geometry" />
        </mxCell>
        <mxCell id="jp-UoOTQR8ZDa5AJa1vx-122" value="entrada válida" style="whiteSpace=wrap;html=1;rounded=1;arcSize=22;" vertex="1" parent="1">
          <mxGeometry x="1329" y="700" width="120" height="30" as="geometry" />
        </mxCell>
        <mxCell id="jp-UoOTQR8ZDa5AJa1vx-133" value="" style="edgeStyle=orthogonalEdgeStyle;rounded=0;orthogonalLoop=1;jettySize=auto;html=1;" edge="1" parent="1" source="jp-UoOTQR8ZDa5AJa1vx-124" target="jp-UoOTQR8ZDa5AJa1vx-132">
          <mxGeometry relative="1" as="geometry" />
        </mxCell>
        <mxCell id="jp-UoOTQR8ZDa5AJa1vx-124" value="entrada inválida" style="whiteSpace=wrap;html=1;rounded=1;arcSize=22;" vertex="1" parent="1">
          <mxGeometry x="1329" y="760" width="120" height="30" as="geometry" />
        </mxCell>
        <mxCell id="jp-UoOTQR8ZDa5AJa1vx-138" value="" style="edgeStyle=orthogonalEdgeStyle;rounded=0;orthogonalLoop=1;jettySize=auto;html=1;" edge="1" parent="1" source="jp-UoOTQR8ZDa5AJa1vx-126" target="jp-UoOTQR8ZDa5AJa1vx-134">
          <mxGeometry relative="1" as="geometry" />
        </mxCell>
        <mxCell id="jp-UoOTQR8ZDa5AJa1vx-126" value="entrada válida" style="whiteSpace=wrap;html=1;rounded=1;arcSize=22;" vertex="1" parent="1">
          <mxGeometry x="1329" y="830" width="120" height="30" as="geometry" />
        </mxCell>
        <mxCell id="jp-UoOTQR8ZDa5AJa1vx-137" value="" style="edgeStyle=orthogonalEdgeStyle;rounded=0;orthogonalLoop=1;jettySize=auto;html=1;" edge="1" parent="1" source="jp-UoOTQR8ZDa5AJa1vx-127" target="jp-UoOTQR8ZDa5AJa1vx-135">
          <mxGeometry relative="1" as="geometry" />
        </mxCell>
        <mxCell id="jp-UoOTQR8ZDa5AJa1vx-127" value="entrada inválida" style="whiteSpace=wrap;html=1;rounded=1;arcSize=22;" vertex="1" parent="1">
          <mxGeometry x="1329" y="900" width="120" height="30" as="geometry" />
        </mxCell>
        <mxCell id="jp-UoOTQR8ZDa5AJa1vx-130" value="o ponto A aparece no mapa" style="whiteSpace=wrap;html=1;rounded=1;arcSize=22;" vertex="1" parent="1">
          <mxGeometry x="1525" y="697.25" width="251" height="35" as="geometry" />
        </mxCell>
        <mxCell id="jp-UoOTQR8ZDa5AJa1vx-132" value=", o campo é destacado em vermelho, e o erro&lt;br/&gt;&quot;Você digitou um endereço incorreto&quot; aparece" style="whiteSpace=wrap;html=1;rounded=1;arcSize=22;" vertex="1" parent="1">
          <mxGeometry x="1525" y="744.75" width="271" height="60" as="geometry" />
        </mxCell>
        <mxCell id="jp-UoOTQR8ZDa5AJa1vx-134" value="o ponto B aparece no mapa" style="whiteSpace=wrap;html=1;rounded=1;arcSize=22;" vertex="1" parent="1">
          <mxGeometry x="1535" y="827.25" width="251" height="35" as="geometry" />
        </mxCell>
        <mxCell id="jp-UoOTQR8ZDa5AJa1vx-135" value=", o campo é destacado em vermelho, e o erro&lt;br/&gt;&quot;Você digitou um endereço incorreto&quot; aparece" style="whiteSpace=wrap;html=1;rounded=1;arcSize=22;" vertex="1" parent="1">
          <mxGeometry x="1536" y="884.75" width="271" height="60" as="geometry" />
        </mxCell>
        <mxCell id="jp-UoOTQR8ZDa5AJa1vx-142" value="" style="edgeStyle=orthogonalEdgeStyle;rounded=0;orthogonalLoop=1;jettySize=auto;html=1;" edge="1" parent="1" source="jp-UoOTQR8ZDa5AJa1vx-139" target="jp-UoOTQR8ZDa5AJa1vx-141">
          <mxGeometry relative="1" as="geometry" />
        </mxCell>
        <mxCell id="jp-UoOTQR8ZDa5AJa1vx-144" style="edgeStyle=orthogonalEdgeStyle;rounded=0;orthogonalLoop=1;jettySize=auto;html=1;entryX=0;entryY=0.5;entryDx=0;entryDy=0;" edge="1" parent="1" source="jp-UoOTQR8ZDa5AJa1vx-139" target="jp-UoOTQR8ZDa5AJa1vx-143">
          <mxGeometry relative="1" as="geometry" />
        </mxCell>
        <mxCell id="jp-UoOTQR8ZDa5AJa1vx-146" style="edgeStyle=orthogonalEdgeStyle;rounded=0;orthogonalLoop=1;jettySize=auto;html=1;entryX=0;entryY=0.5;entryDx=0;entryDy=0;" edge="1" parent="1" source="jp-UoOTQR8ZDa5AJa1vx-139" target="jp-UoOTQR8ZDa5AJa1vx-145">
          <mxGeometry relative="1" as="geometry" />
        </mxCell>
        <mxCell id="jp-UoOTQR8ZDa5AJa1vx-139" value="Selecionando&lt;br/&gt;o modo e tipo de transporte" style="rounded=1;whiteSpace=wrap;html=1;arcSize=22;" vertex="1" parent="1">
          <mxGeometry x="730" y="972.5" width="120" height="40" as="geometry" />
        </mxCell>
        <mxCell id="jp-UoOTQR8ZDa5AJa1vx-148" value="" style="edgeStyle=orthogonalEdgeStyle;rounded=0;orthogonalLoop=1;jettySize=auto;html=1;" edge="1" parent="1" source="jp-UoOTQR8ZDa5AJa1vx-141" target="jp-UoOTQR8ZDa5AJa1vx-147">
          <mxGeometry relative="1" as="geometry" />
        </mxCell>
        <mxCell id="jp-UoOTQR8ZDa5AJa1vx-141" value="optimal" style="whiteSpace=wrap;html=1;rounded=1;arcSize=22;" vertex="1" parent="1">
          <mxGeometry x="950" y="976.25" width="90" height="32.5" as="geometry" />
        </mxCell>
        <mxCell id="jp-UoOTQR8ZDa5AJa1vx-150" value="" style="edgeStyle=orthogonalEdgeStyle;rounded=0;orthogonalLoop=1;jettySize=auto;html=1;" edge="1" parent="1" source="jp-UoOTQR8ZDa5AJa1vx-143" target="jp-UoOTQR8ZDa5AJa1vx-149">
          <mxGeometry relative="1" as="geometry" />
        </mxCell>
        <mxCell id="jp-UoOTQR8ZDa5AJa1vx-143" value="flash" style="whiteSpace=wrap;html=1;rounded=1;arcSize=22;" vertex="1" parent="1">
          <mxGeometry x="950" y="1030" width="90" height="32.5" as="geometry" />
        </mxCell>
        <mxCell id="jp-UoOTQR8ZDa5AJa1vx-152" value="" style="edgeStyle=orthogonalEdgeStyle;rounded=0;orthogonalLoop=1;jettySize=auto;html=1;" edge="1" parent="1" source="jp-UoOTQR8ZDa5AJa1vx-145" target="jp-UoOTQR8ZDa5AJa1vx-151">
          <mxGeometry relative="1" as="geometry" />
        </mxCell>
        <mxCell id="jp-UoOTQR8ZDa5AJa1vx-145" value="personal" style="whiteSpace=wrap;html=1;rounded=1;arcSize=22;" vertex="1" parent="1">
          <mxGeometry x="950" y="1095" width="90" height="32.5" as="geometry" />
        </mxCell>
        <mxCell id="jp-UoOTQR8ZDa5AJa1vx-147" value="tipo de transporte é atribuido automaticamente" style="whiteSpace=wrap;html=1;rounded=1;arcSize=22;" vertex="1" parent="1">
          <mxGeometry x="1098" y="976.25" width="285" height="32.5" as="geometry" />
        </mxCell>
        <mxCell id="jp-UoOTQR8ZDa5AJa1vx-149" value="tipo de transporte é atribuido automaticamente" style="whiteSpace=wrap;html=1;rounded=1;arcSize=22;" vertex="1" parent="1">
          <mxGeometry x="1098" y="1030" width="285" height="32.5" as="geometry" />
        </mxCell>
        <mxCell id="jp-UoOTQR8ZDa5AJa1vx-159" style="edgeStyle=orthogonalEdgeStyle;rounded=0;orthogonalLoop=1;jettySize=auto;html=1;" edge="1" parent="1" source="jp-UoOTQR8ZDa5AJa1vx-151" target="jp-UoOTQR8ZDa5AJa1vx-153">
          <mxGeometry relative="1" as="geometry" />
        </mxCell>
        <mxCell id="jp-UoOTQR8ZDa5AJa1vx-160" style="edgeStyle=orthogonalEdgeStyle;rounded=0;orthogonalLoop=1;jettySize=auto;html=1;entryX=0;entryY=0.5;entryDx=0;entryDy=0;" edge="1" parent="1" source="jp-UoOTQR8ZDa5AJa1vx-151" target="jp-UoOTQR8ZDa5AJa1vx-154">
          <mxGeometry relative="1" as="geometry" />
        </mxCell>
        <mxCell id="jp-UoOTQR8ZDa5AJa1vx-161" style="edgeStyle=orthogonalEdgeStyle;rounded=0;orthogonalLoop=1;jettySize=auto;html=1;entryX=0;entryY=0.5;entryDx=0;entryDy=0;" edge="1" parent="1" source="jp-UoOTQR8ZDa5AJa1vx-151" target="jp-UoOTQR8ZDa5AJa1vx-155">
          <mxGeometry relative="1" as="geometry" />
        </mxCell>
        <mxCell id="jp-UoOTQR8ZDa5AJa1vx-162" style="edgeStyle=orthogonalEdgeStyle;rounded=0;orthogonalLoop=1;jettySize=auto;html=1;entryX=0;entryY=0.5;entryDx=0;entryDy=0;" edge="1" parent="1" source="jp-UoOTQR8ZDa5AJa1vx-151" target="jp-UoOTQR8ZDa5AJa1vx-156">
          <mxGeometry relative="1" as="geometry" />
        </mxCell>
        <mxCell id="jp-UoOTQR8ZDa5AJa1vx-163" style="edgeStyle=orthogonalEdgeStyle;rounded=0;orthogonalLoop=1;jettySize=auto;html=1;entryX=0;entryY=0.25;entryDx=0;entryDy=0;" edge="1" parent="1" source="jp-UoOTQR8ZDa5AJa1vx-151" target="jp-UoOTQR8ZDa5AJa1vx-157">
          <mxGeometry relative="1" as="geometry" />
        </mxCell>
        <mxCell id="jp-UoOTQR8ZDa5AJa1vx-164" style="edgeStyle=orthogonalEdgeStyle;rounded=0;orthogonalLoop=1;jettySize=auto;html=1;entryX=0;entryY=0.5;entryDx=0;entryDy=0;" edge="1" parent="1" source="jp-UoOTQR8ZDa5AJa1vx-151" target="jp-UoOTQR8ZDa5AJa1vx-158">
          <mxGeometry relative="1" as="geometry" />
        </mxCell>
        <mxCell id="jp-UoOTQR8ZDa5AJa1vx-151" value="tipo de transporte é selecionado manualmente" style="whiteSpace=wrap;html=1;rounded=1;arcSize=22;" vertex="1" parent="1">
          <mxGeometry x="1098" y="1095" width="285" height="32.5" as="geometry" />
        </mxCell>
        <mxCell id="jp-UoOTQR8ZDa5AJa1vx-153" value="carro particular" style="whiteSpace=wrap;html=1;rounded=1;arcSize=22;" vertex="1" parent="1">
          <mxGeometry x="1470" y="1100" width="90" height="22.5" as="geometry" />
        </mxCell>
        <mxCell id="jp-UoOTQR8ZDa5AJa1vx-154" value="a pé" style="whiteSpace=wrap;html=1;rounded=1;arcSize=22;" vertex="1" parent="1">
          <mxGeometry x="1470" y="1126.25" width="90" height="22.5" as="geometry" />
        </mxCell>
        <mxCell id="jp-UoOTQR8ZDa5AJa1vx-166" value="" style="edgeStyle=orthogonalEdgeStyle;rounded=0;orthogonalLoop=1;jettySize=auto;html=1;" edge="1" parent="1" source="jp-UoOTQR8ZDa5AJa1vx-155" target="jp-UoOTQR8ZDa5AJa1vx-165">
          <mxGeometry relative="1" as="geometry" />
        </mxCell>
        <mxCell id="jp-UoOTQR8ZDa5AJa1vx-155" value="taxi" style="whiteSpace=wrap;html=1;rounded=1;arcSize=22;" vertex="1" parent="1">
          <mxGeometry x="1470" y="1153.75" width="90" height="22.5" as="geometry" />
        </mxCell>
        <mxCell id="jp-UoOTQR8ZDa5AJa1vx-156" value="bicicleta" style="whiteSpace=wrap;html=1;rounded=1;arcSize=22;" vertex="1" parent="1">
          <mxGeometry x="1470" y="1181.25" width="90" height="22.5" as="geometry" />
        </mxCell>
        <mxCell id="jp-UoOTQR8ZDa5AJa1vx-157" value="scooter" style="whiteSpace=wrap;html=1;rounded=1;arcSize=22;" vertex="1" parent="1">
          <mxGeometry x="1470" y="1209.25" width="90" height="22.5" as="geometry" />
        </mxCell>
        <mxCell id="jp-UoOTQR8ZDa5AJa1vx-158" value="carro compartilhado" style="whiteSpace=wrap;html=1;rounded=1;arcSize=22;" vertex="1" parent="1">
          <mxGeometry x="1430" y="1236.25" width="130" height="22.5" as="geometry" />
        </mxCell>
        <mxCell id="jp-UoOTQR8ZDa5AJa1vx-165" value="botão&amp;nbsp; chamar taxi" style="whiteSpace=wrap;html=1;rounded=1;arcSize=22;" vertex="1" parent="1">
          <mxGeometry x="1660" y="1147.5" width="75" height="35" as="geometry" />
        </mxCell>
        <mxCell id="jp-UoOTQR8ZDa5AJa1vx-175" style="edgeStyle=orthogonalEdgeStyle;rounded=0;orthogonalLoop=1;jettySize=auto;html=1;entryX=0;entryY=0.5;entryDx=0;entryDy=0;" edge="1" parent="1" source="jp-UoOTQR8ZDa5AJa1vx-167" target="jp-UoOTQR8ZDa5AJa1vx-169">
          <mxGeometry relative="1" as="geometry" />
        </mxCell>
        <mxCell id="jp-UoOTQR8ZDa5AJa1vx-176" style="edgeStyle=orthogonalEdgeStyle;rounded=0;orthogonalLoop=1;jettySize=auto;html=1;entryX=0;entryY=0.5;entryDx=0;entryDy=0;" edge="1" parent="1" source="jp-UoOTQR8ZDa5AJa1vx-167" target="jp-UoOTQR8ZDa5AJa1vx-170">
          <mxGeometry relative="1" as="geometry" />
        </mxCell>
        <mxCell id="jp-UoOTQR8ZDa5AJa1vx-177" style="edgeStyle=orthogonalEdgeStyle;rounded=0;orthogonalLoop=1;jettySize=auto;html=1;entryX=0;entryY=0.5;entryDx=0;entryDy=0;" edge="1" parent="1" source="jp-UoOTQR8ZDa5AJa1vx-167" target="jp-UoOTQR8ZDa5AJa1vx-171">
          <mxGeometry relative="1" as="geometry" />
        </mxCell>
        <mxCell id="jp-UoOTQR8ZDa5AJa1vx-178" style="edgeStyle=orthogonalEdgeStyle;rounded=0;orthogonalLoop=1;jettySize=auto;html=1;entryX=0;entryY=0.75;entryDx=0;entryDy=0;" edge="1" parent="1" source="jp-UoOTQR8ZDa5AJa1vx-167" target="jp-UoOTQR8ZDa5AJa1vx-172">
          <mxGeometry relative="1" as="geometry" />
        </mxCell>
        <mxCell id="jp-UoOTQR8ZDa5AJa1vx-179" style="edgeStyle=orthogonalEdgeStyle;rounded=0;orthogonalLoop=1;jettySize=auto;html=1;entryX=0;entryY=0.5;entryDx=0;entryDy=0;" edge="1" parent="1" source="jp-UoOTQR8ZDa5AJa1vx-167" target="jp-UoOTQR8ZDa5AJa1vx-173">
          <mxGeometry relative="1" as="geometry" />
        </mxCell>
        <mxCell id="jp-UoOTQR8ZDa5AJa1vx-180" style="edgeStyle=orthogonalEdgeStyle;rounded=0;orthogonalLoop=1;jettySize=auto;html=1;entryX=0;entryY=0.5;entryDx=0;entryDy=0;" edge="1" parent="1" source="jp-UoOTQR8ZDa5AJa1vx-167" target="jp-UoOTQR8ZDa5AJa1vx-174">
          <mxGeometry relative="1" as="geometry" />
        </mxCell>
        <mxCell id="jp-UoOTQR8ZDa5AJa1vx-167" value="Cálculo&lt;br/&gt;de tempo e custo" style="rounded=1;whiteSpace=wrap;html=1;arcSize=22;" vertex="1" parent="1">
          <mxGeometry x="732" y="1292.5" width="120" height="40" as="geometry" />
        </mxCell>
        <mxCell id="jp-UoOTQR8ZDa5AJa1vx-184" value="" style="edgeStyle=orthogonalEdgeStyle;rounded=0;orthogonalLoop=1;jettySize=auto;html=1;" edge="1" parent="1" source="jp-UoOTQR8ZDa5AJa1vx-169" target="jp-UoOTQR8ZDa5AJa1vx-183">
          <mxGeometry relative="1" as="geometry" />
        </mxCell>
        <mxCell id="jp-UoOTQR8ZDa5AJa1vx-169" value="carro particular" style="whiteSpace=wrap;html=1;rounded=1;arcSize=22;" vertex="1" parent="1">
          <mxGeometry x="950" y="1301.25" width="90" height="22.5" as="geometry" />
        </mxCell>
        <mxCell id="jp-UoOTQR8ZDa5AJa1vx-182" value="" style="edgeStyle=orthogonalEdgeStyle;rounded=0;orthogonalLoop=1;jettySize=auto;html=1;" edge="1" parent="1" source="jp-UoOTQR8ZDa5AJa1vx-170" target="jp-UoOTQR8ZDa5AJa1vx-181">
          <mxGeometry relative="1" as="geometry" />
        </mxCell>
        <mxCell id="jp-UoOTQR8ZDa5AJa1vx-170" value="a pé" style="whiteSpace=wrap;html=1;rounded=1;arcSize=22;" vertex="1" parent="1">
          <mxGeometry x="950" y="1332.5" width="90" height="22.5" as="geometry" />
        </mxCell>
        <mxCell id="jp-UoOTQR8ZDa5AJa1vx-186" style="edgeStyle=orthogonalEdgeStyle;rounded=0;orthogonalLoop=1;jettySize=auto;html=1;entryX=0;entryY=0.5;entryDx=0;entryDy=0;" edge="1" parent="1" source="jp-UoOTQR8ZDa5AJa1vx-171" target="jp-UoOTQR8ZDa5AJa1vx-185">
          <mxGeometry relative="1" as="geometry" />
        </mxCell>
        <mxCell id="jp-UoOTQR8ZDa5AJa1vx-171" value="taxi" style="whiteSpace=wrap;html=1;rounded=1;arcSize=22;" vertex="1" parent="1">
          <mxGeometry x="950" y="1361.88" width="90" height="22.5" as="geometry" />
        </mxCell>
        <mxCell id="jp-UoOTQR8ZDa5AJa1vx-188" value="" style="edgeStyle=orthogonalEdgeStyle;rounded=0;orthogonalLoop=1;jettySize=auto;html=1;" edge="1" parent="1" source="jp-UoOTQR8ZDa5AJa1vx-172" target="jp-UoOTQR8ZDa5AJa1vx-187">
          <mxGeometry relative="1" as="geometry" />
        </mxCell>
        <mxCell id="jp-UoOTQR8ZDa5AJa1vx-172" value="bicicleta" style="whiteSpace=wrap;html=1;rounded=1;arcSize=22;" vertex="1" parent="1">
          <mxGeometry x="950" y="1388.75" width="90" height="22.5" as="geometry" />
        </mxCell>
        <mxCell id="jp-UoOTQR8ZDa5AJa1vx-190" value="" style="edgeStyle=orthogonalEdgeStyle;rounded=0;orthogonalLoop=1;jettySize=auto;html=1;" edge="1" parent="1" source="jp-UoOTQR8ZDa5AJa1vx-173" target="jp-UoOTQR8ZDa5AJa1vx-189">
          <mxGeometry relative="1" as="geometry" />
        </mxCell>
        <mxCell id="jp-UoOTQR8ZDa5AJa1vx-173" value="scooter" style="whiteSpace=wrap;html=1;rounded=1;arcSize=22;" vertex="1" parent="1">
          <mxGeometry x="950" y="1420" width="90" height="22.5" as="geometry" />
        </mxCell>
        <mxCell id="jp-UoOTQR8ZDa5AJa1vx-192" value="" style="edgeStyle=orthogonalEdgeStyle;rounded=0;orthogonalLoop=1;jettySize=auto;html=1;" edge="1" parent="1" source="jp-UoOTQR8ZDa5AJa1vx-174" target="jp-UoOTQR8ZDa5AJa1vx-191">
          <mxGeometry relative="1" as="geometry" />
        </mxCell>
        <mxCell id="jp-UoOTQR8ZDa5AJa1vx-174" value="carro compartilhado" style="whiteSpace=wrap;html=1;rounded=1;arcSize=22;" vertex="1" parent="1">
          <mxGeometry x="939" y="1457.5" width="130" height="22.5" as="geometry" />
        </mxCell>
        <mxCell id="jp-UoOTQR8ZDa5AJa1vx-181" value="velocidade 4km/h custo&amp;nbsp;$0 / km&lt;br/&gt;" style="whiteSpace=wrap;html=1;rounded=1;arcSize=22;" vertex="1" parent="1">
          <mxGeometry x="1090" y="1332.5" width="193" height="21.88" as="geometry" />
        </mxCell>
        <mxCell id="jp-UoOTQR8ZDa5AJa1vx-183" value="&amp;nbsp;ver a tabela &quot;Média de velocidade do carro&quot;custo&amp;nbsp;$0.8 / km" style="whiteSpace=wrap;html=1;rounded=1;arcSize=22;" vertex="1" parent="1">
          <mxGeometry x="1090" y="1300" width="329" height="23.75" as="geometry" />
        </mxCell>
        <mxCell id="jp-UoOTQR8ZDa5AJa1vx-185" value="&amp;nbsp;ver a tabela &quot;Média de velocidade do taxi&quot;custo&amp;nbsp;$0.3 / min" style="whiteSpace=wrap;html=1;rounded=1;arcSize=22;" vertex="1" parent="1">
          <mxGeometry x="1087" y="1362.25" width="330" height="23.75" as="geometry" />
        </mxCell>
        <mxCell id="jp-UoOTQR8ZDa5AJa1vx-187" value="velocidade 12km/h custo&amp;nbsp;$1/ km" style="whiteSpace=wrap;html=1;rounded=1;arcSize=22;" vertex="1" parent="1">
          <mxGeometry x="1087" y="1390" width="193" height="21.88" as="geometry" />
        </mxCell>
        <mxCell id="jp-UoOTQR8ZDa5AJa1vx-189" value="velocidade 10km/h custo&amp;nbsp;$0.8 / km" style="whiteSpace=wrap;html=1;rounded=1;arcSize=22;" vertex="1" parent="1">
          <mxGeometry x="1090" y="1420.62" width="193" height="21.88" as="geometry" />
        </mxCell>
        <mxCell id="jp-UoOTQR8ZDa5AJa1vx-191" value="&amp;nbsp;ver a tabela &quot;Média de velocidade do carro&quot;custo&amp;nbsp;$0.5 / km" style="whiteSpace=wrap;html=1;rounded=1;arcSize=22;" vertex="1" parent="1">
          <mxGeometry x="1090" y="1456.25" width="329" height="23.75" as="geometry" />
        </mxCell>
        <mxCell id="jp-UoOTQR8ZDa5AJa1vx-196" value="" style="edgeStyle=orthogonalEdgeStyle;rounded=0;orthogonalLoop=1;jettySize=auto;html=1;" edge="1" parent="1" source="jp-UoOTQR8ZDa5AJa1vx-193" target="jp-UoOTQR8ZDa5AJa1vx-195">
          <mxGeometry relative="1" as="geometry" />
        </mxCell>
        <mxCell id="jp-UoOTQR8ZDa5AJa1vx-199" style="edgeStyle=orthogonalEdgeStyle;rounded=0;orthogonalLoop=1;jettySize=auto;html=1;entryX=0;entryY=0.5;entryDx=0;entryDy=0;" edge="1" parent="1" source="jp-UoOTQR8ZDa5AJa1vx-193" target="jp-UoOTQR8ZDa5AJa1vx-198">
          <mxGeometry relative="1" as="geometry" />
        </mxCell>
        <mxCell id="jp-UoOTQR8ZDa5AJa1vx-193" value="interação com o mapa" style="rounded=1;whiteSpace=wrap;html=1;arcSize=22;" vertex="1" parent="1">
          <mxGeometry x="732" y="1560" width="160" height="40" as="geometry" />
        </mxCell>
        <mxCell id="jp-UoOTQR8ZDa5AJa1vx-205" value="" style="edgeStyle=orthogonalEdgeStyle;rounded=0;orthogonalLoop=1;jettySize=auto;html=1;" edge="1" parent="1" source="jp-UoOTQR8ZDa5AJa1vx-195" target="jp-UoOTQR8ZDa5AJa1vx-204">
          <mxGeometry relative="1" as="geometry" />
        </mxCell>
        <mxCell id="jp-UoOTQR8ZDa5AJa1vx-207" style="edgeStyle=orthogonalEdgeStyle;rounded=0;orthogonalLoop=1;jettySize=auto;html=1;" edge="1" parent="1" source="jp-UoOTQR8ZDa5AJa1vx-195" target="jp-UoOTQR8ZDa5AJa1vx-206">
          <mxGeometry relative="1" as="geometry" />
        </mxCell>
        <mxCell id="jp-UoOTQR8ZDa5AJa1vx-195" value="escala" style="whiteSpace=wrap;html=1;rounded=1;arcSize=22;" vertex="1" parent="1">
          <mxGeometry x="980" y="1530" width="68" height="40" as="geometry" />
        </mxCell>
        <mxCell id="jp-UoOTQR8ZDa5AJa1vx-201" value="" style="edgeStyle=orthogonalEdgeStyle;rounded=0;orthogonalLoop=1;jettySize=auto;html=1;" edge="1" parent="1" source="jp-UoOTQR8ZDa5AJa1vx-198" target="jp-UoOTQR8ZDa5AJa1vx-200">
          <mxGeometry relative="1" as="geometry" />
        </mxCell>
        <mxCell id="jp-UoOTQR8ZDa5AJa1vx-203" style="edgeStyle=orthogonalEdgeStyle;rounded=0;orthogonalLoop=1;jettySize=auto;html=1;entryX=0;entryY=0.75;entryDx=0;entryDy=0;" edge="1" parent="1" source="jp-UoOTQR8ZDa5AJa1vx-198" target="jp-UoOTQR8ZDa5AJa1vx-202">
          <mxGeometry relative="1" as="geometry" />
        </mxCell>
        <mxCell id="jp-UoOTQR8ZDa5AJa1vx-198" value="movimento de tela" style="whiteSpace=wrap;html=1;rounded=1;arcSize=22;" vertex="1" parent="1">
          <mxGeometry x="980" y="1600" width="68" height="40" as="geometry" />
        </mxCell>
        <mxCell id="jp-UoOTQR8ZDa5AJa1vx-200" value="mouse" style="whiteSpace=wrap;html=1;rounded=1;arcSize=22;" vertex="1" parent="1">
          <mxGeometry x="1098" y="1600" width="88" height="20" as="geometry" />
        </mxCell>
        <mxCell id="jp-UoOTQR8ZDa5AJa1vx-202" value="touchpad" style="whiteSpace=wrap;html=1;rounded=1;arcSize=22;" vertex="1" parent="1">
          <mxGeometry x="1098" y="1640" width="88" height="20" as="geometry" />
        </mxCell>
        <mxCell id="jp-UoOTQR8ZDa5AJa1vx-204" value="zoom &#39;&#39;+&#39;&#39;" style="whiteSpace=wrap;html=1;rounded=1;arcSize=22;" vertex="1" parent="1">
          <mxGeometry x="1098" y="1510" width="68" height="30" as="geometry" />
        </mxCell>
        <mxCell id="jp-UoOTQR8ZDa5AJa1vx-206" value="zoom &#39;&#39;-&#39;&#39;" style="whiteSpace=wrap;html=1;rounded=1;arcSize=22;" vertex="1" parent="1">
          <mxGeometry x="1098" y="1550" width="68" height="30" as="geometry" />
        </mxCell>
      </root>
    </mxGraphModel>
  </diagram>
</mxfile>
